<svg class="icon" viewBox="0 0 1024 1024" xmlns="http://www.w3.org/2000/svg" width="128" height="128"><defs><style/></defs><path d="M756.364 907.636H290.909a58.228 58.228 0 0 1-58.182-58.181V751.01h581.818v98.444c0 32.093-26.088 58.181-58.181 58.181M290.909 116.364h465.455c32.093 0 58.181 26.088 58.181 58.181v506.648H232.727V174.545c0-32.093 26.089-58.181 58.182-58.181m465.455-69.819H290.909a128.163 128.163 0 0 0-128 128v674.91c0 70.562 57.437 128 128 128h465.455c70.563 0 128-57.438 128-128v-674.91c0-70.562-57.437-128-128-128M523.636 779.636a46.545 46.545 0 1 0 .024 93.115 46.545 46.545 0 0 0-.024-93.115"/></svg>