<svg class="icon" viewBox="0 0 1024 1024" xmlns="http://www.w3.org/2000/svg" width="128" height="128"><defs><style/></defs><path d="M371.147 531.61a284.322 284.322 0 0 1-143.583-247.174C227.564 127.342 354.906 0 512 0s284.436 127.342 284.436 284.436S669.094 568.87 512 568.87c-241.77 0-439.538 188.581-454.244 426.654h-.085a28.444 28.444 0 1 1-56.688-3.328C14.437 772.328 166.667 590.005 371.147 531.61zM512 511.984a227.549 227.549 0 1 0 0-455.097 227.549 227.549 0 0 0 0 455.097z"/><path d="M655.156 995.525a28.444 28.444 0 0 0 28.444 28.443h228.743a28.444 28.444 0 0 0 28.444-28.443V824.579h53.872c25.315 0 38-30.548 20.195-48.496l-198.252-199.39a28.444 28.444 0 0 0-40.219-.113L575.97 775.969c-17.977 17.92-5.29 48.61 20.08 48.61h59.106v170.946zm141.166-358.531L926.28 767.692h-13.938a28.444 28.444 0 0 0-28.443 28.443v170.946H712.044V796.135a28.444 28.444 0 0 0-28.444-28.443h-18.63l131.352-130.698z"/></svg>