<svg class="icon" viewBox="0 0 1024 1024" xmlns="http://www.w3.org/2000/svg" width="128" height="128"><defs><style/></defs><path d="M443.278 556.828a196.267 196.267 0 1 1 0-392.533 196.267 196.267 0 0 1 0 392.533zm0-51.2a145.067 145.067 0 1 0 0-290.133 145.067 145.067 0 0 0 0 290.133zm250.198 35.84a28.444 28.444 0 0 1-15.133-54.84 130.901 130.901 0 0 0 22.414-243.883 28.444 28.444 0 1 1 24.918-51.086 187.733 187.733 0 0 1-32.2 349.866z"/><path d="M769.934 748.26c0 51.882-42.098 93.98-93.923 93.98H240.526a90.68 90.68 0 0 1-90.34-98.304c12.8-152.292 136.306-238.308 309.874-238.308 172.032 0 294.344 83.343 309.42 233.245.284 3.129.454 6.258.454 9.387zM460.06 556.828c-149.447 0-248.604 69.064-258.844 191.432a39.48 39.48 0 0 0 39.31 42.78h435.485a42.78 42.78 0 0 0 42.496-47.047C706.447 623.73 608.256 556.828 460.06 556.828z"/><path d="M951.694 726.13a28.444 28.444 0 1 1-56.889 0 38.798 38.798 0 0 0-.227-3.926c-10.752-106.837-90.909-169.87-217.031-179.768a28.444 28.444 0 0 1 4.494-56.719c151.324 11.89 255.374 93.64 269.141 230.799.342 3.185.512 6.371.512 9.614z"/></svg>