<svg class="icon" viewBox="0 0 1024 1024" xmlns="http://www.w3.org/2000/svg" width="128" height="128"><defs><style/></defs><path d="M512 978.432c-256.652 0-465.455-208.803-465.455-465.501C46.545 256.279 255.348 47.476 512 47.476S977.455 256.28 977.455 512.931 768.652 978.432 512 978.432zm0-861.137c-218.159 0-395.636 177.477-395.636 395.636 0 218.205 177.477 395.683 395.636 395.683 218.159 0 395.636-177.478 395.636-395.683 0-218.159-177.477-395.636-395.636-395.636zm34.91 507.252V274.71a34.91 34.91 0 0 0-69.82 0v349.836a34.91 34.91 0 0 0 69.82 0zm0 122.6v-8.983a34.91 34.91 0 0 0-69.82 0v8.984a34.91 34.91 0 0 0 69.82 0z"/></svg>