<svg class="icon" viewBox="0 0 1024 1024" xmlns="http://www.w3.org/2000/svg" width="128" height="128"><defs><style/></defs><path d="M513.807 1024c-162.635 0-455.379-254.193-459.595-504.17V233.714a93.365 93.365 0 0 1 81.317-88.546 570.428 570.428 0 0 0 163.238-40.358 393.336 393.336 0 0 0 148.179-81.317 101.798 101.798 0 0 1 120.47-5.421A629.459 629.459 0 0 0 716.8 103.605a1255.304 1255.304 0 0 0 169.864 38.55 98.786 98.786 0 0 1 79.51 90.956 2911.172 2911.172 0 0 1-3.012 291.538C924.612 846.91 672.828 1024 513.807 1024zm0-963.765a39.153 39.153 0 0 0-24.696 7.83 438.513 438.513 0 0 1-169.864 93.366A608.376 608.376 0 0 1 138.541 204.8a33.732 33.732 0 0 0-24.094 30.118v283.708c4.217 222.268 275.275 445.139 399.36 445.139s354.184-148.18 391.53-444.537c9.035-175.887 0-281.9 0-283.106a38.55 38.55 0 0 0-29.516-33.731 1287.83 1287.83 0 0 1-180.706-41.563 676.442 676.442 0 0 1-159.02-94.57A37.346 37.346 0 0 0 512 60.236z"/><path d="M784.866 416.828l-296.96 280.697a40.358 40.358 0 0 1-49.393 4.819l-7.83-6.626-161.431-171.069a40.358 40.358 0 1 1 60.235-55.416L463.21 610.786l267.445-252.988a40.358 40.358 0 1 1 55.417 60.235"/></svg>